<?xml version="1.0" standalone="no"?>
<!DOCTYPE svg PUBLIC "-//W3C//DTD SVG 20010904//EN"
 "http://www.w3.org/TR/2001/REC-SVG-20010904/DTD/svg10.dtd">
<svg version="1.0" xmlns="http://www.w3.org/2000/svg"
 width="346.000000pt" height="100.000000pt" viewBox="0 0 346.000000 100.000000"
 preserveAspectRatio="xMidYMid meet">

<g transform="translate(0.000000,100.000000) scale(0.100000,-0.100000)"
fill="#000000" stroke="none">
<path d="M453 885 c-120 -33 -204 -102 -256 -213 -29 -61 -32 -76 -32 -162 0
-85 3 -102 31 -160 l30 -65 17 49 c52 152 171 251 411 342 97 37 176 79 176
94 0 29 -126 101 -208 119 -67 14 -104 13 -169 -4z m248 -45 c28 -16 25 -70
-5 -99 -29 -27 -102 -39 -135 -22 -23 13 -28 49 -11 81 22 42 106 64 151 40z"/>
<path d="M807 698 c-30 -31 -83 -66 -150 -99 -192 -96 -313 -189 -377 -289
-16 -26 -30 -49 -30 -52 0 -3 11 -13 25 -22 24 -16 25 -16 46 26 73 144 221
264 339 276 146 14 162 -86 48 -286 -16 -29 -32 -51 -35 -49 -2 3 8 43 22 89
16 53 25 101 23 129 -3 42 -5 44 -35 47 -53 5 -128 -43 -240 -156 -57 -56
-103 -108 -103 -116 0 -8 21 -25 47 -37 63 -31 197 -38 274 -15 112 32 213
133 252 250 33 97 16 234 -39 321 l-19 30 -48 -47z"/>
<path d="M1504 603 l-62 -4 -6 -37 c-3 -20 -6 -74 -6 -119 l0 -83 64 0 c80 0
96 6 96 36 0 22 -4 24 -48 24 -27 0 -52 3 -55 7 -13 13 16 33 49 33 30 0 34 3
34 25 0 22 -4 25 -34 25 -32 0 -55 14 -43 26 3 3 27 8 54 12 43 6 48 10 48 32
0 28 -2 28 -91 23z"/>
<path d="M2558 591 c-47 -37 -62 -143 -28 -198 15 -26 26 -33 51 -33 46 0 65
15 84 65 47 120 -25 230 -107 166z m64 -48 c6 -29 -7 -112 -19 -124 -23 -23
-36 2 -30 62 3 32 8 62 12 68 10 17 33 13 37 -6z"/>
<path d="M2978 603 l-78 -4 0 -29 c0 -26 3 -30 29 -30 l30 0 -3 -90 -2 -90 28
0 28 0 0 73 c0 97 7 117 36 117 20 0 24 5 24 30 0 17 -3 29 -7 28 -5 -1 -43
-4 -85 -5z"/>
<path d="M1074 563 c-19 -46 -64 -182 -64 -194 0 -5 13 -9 29 -9 20 0 32 6 36
19 3 10 17 21 30 23 29 6 35 1 35 -24 0 -14 8 -18 36 -18 29 0 34 3 30 18 -3
9 -10 46 -16 82 -23 131 -27 140 -65 140 -31 0 -37 -4 -51 -37z m56 -86 c0 -8
-7 -14 -15 -14 -16 0 -19 9 -8 20 11 11 23 8 23 -6z"/>
<path d="M1247 593 c-3 -5 -8 -59 -12 -120 l-8 -113 26 0 c22 0 26 5 29 37 4
50 23 52 48 4 23 -46 26 -48 51 -25 17 15 17 19 2 47 -14 28 -14 33 1 58 18
31 21 72 6 100 -9 16 -22 19 -75 19 -35 0 -66 -3 -68 -7z m103 -53 c0 -13 -37
-50 -50 -50 -11 0 -14 43 -3 53 10 11 53 8 53 -3z"/>
<path d="M1627 548 c-4 -29 -7 -83 -7 -120 0 -66 1 -68 25 -68 17 0 25 6 26
18 7 87 18 96 41 33 17 -45 23 -51 49 -51 l29 0 0 104 c0 57 3 111 6 120 5 13
-1 16 -25 16 -30 0 -31 -1 -32 -47 l0 -48 -22 45 c-18 37 -28 46 -53 48 -31 3
-31 2 -37 -50z"/>
<path d="M1881 568 c-29 -75 -61 -173 -61 -190 0 -13 8 -18 30 -18 20 0 30 5
30 15 0 22 51 40 62 23 4 -7 8 -19 8 -25 0 -8 13 -13 30 -13 35 0 35 -2 14
109 -23 122 -27 131 -67 131 -28 0 -35 -5 -46 -32z m49 -99 c0 -6 -4 -7 -10
-4 -5 3 -10 11 -10 16 0 6 5 7 10 4 6 -3 10 -11 10 -16z m60 -75 c0 -8 -4 -12
-10 -9 -5 3 -10 13 -10 21 0 8 5 12 10 9 6 -3 10 -13 10 -21z"/>
<path d="M2180 580 c-11 -11 -20 -24 -20 -29 0 -5 -3 -17 -6 -26 -4 -11 7 -28
36 -55 29 -27 40 -44 36 -56 -3 -9 -12 -14 -19 -11 -6 3 -20 8 -29 12 -11 4
-20 0 -28 -14 -9 -18 -7 -22 15 -31 31 -12 85 -13 101 -2 20 13 36 54 30 77
-3 12 -22 34 -41 49 -19 15 -35 34 -35 42 0 19 17 18 28 -2 5 -9 18 -14 28
-12 22 4 31 43 14 64 -19 21 -86 18 -110 -6z"/>
<path d="M2349 593 c-20 -5 -29 -45 -29 -127 0 -79 8 -106 31 -106 13 0 19 9
21 32 3 27 9 33 46 46 64 21 92 89 56 140 -12 18 -24 22 -62 21 -26 -1 -54 -3
-63 -6z m79 -69 c-2 -17 -11 -30 -25 -35 -21 -8 -23 -5 -23 26 0 31 3 35 26
35 22 0 25 -4 22 -26z"/>
<path d="M2717 593 c-3 -5 -8 -59 -12 -120 l-7 -113 26 0 c22 0 26 4 26 29 0
16 6 34 14 41 12 9 19 4 36 -29 22 -45 26 -47 53 -27 17 14 18 16 2 47 -16 30
-16 35 -1 60 19 32 21 90 4 107 -13 13 -134 17 -141 5z m103 -53 c0 -12 -37
-50 -48 -50 -9 0 -13 27 -6 48 4 14 54 17 54 2z"/>
<path d="M3128 583 c-39 -45 -32 -93 18 -124 49 -30 42 -75 -7 -48 -17 9 -25
8 -37 -5 -24 -24 -1 -40 59 -41 44 0 54 4 72 27 18 24 18 30 7 58 -7 17 -26
38 -41 47 -20 12 -29 25 -29 43 l1 25 18 -22 c36 -43 76 -18 53 33 -10 20 -19
24 -55 24 -29 0 -49 -6 -59 -17z"/>
<path d="M955 280 c-17 -19 -17 -21 0 -40 16 -18 20 -19 35 -5 11 10 37 15 73
15 31 0 57 5 57 10 0 6 -26 10 -57 10 -36 0 -62 5 -73 15 -15 14 -19 13 -35
-5z"/>
<path d="M3300 285 c-7 -8 -21 -15 -31 -15 -11 0 -19 -4 -19 -10 0 -5 10 -10
23 -10 13 0 28 -5 35 -12 19 -19 51 16 36 39 -15 24 -29 26 -44 8z"/>
<path d="M1150 260 c0 -5 25 -10 55 -10 30 0 55 5 55 10 0 6 -25 10 -55 10
-30 0 -55 -4 -55 -10z"/>
<path d="M1290 260 c0 -5 25 -10 55 -10 30 0 55 5 55 10 0 6 -25 10 -55 10
-30 0 -55 -4 -55 -10z"/>
<path d="M1430 260 c0 -5 25 -10 55 -10 30 0 55 5 55 10 0 6 -25 10 -55 10
-30 0 -55 -4 -55 -10z"/>
<path d="M1570 260 c0 -5 25 -10 55 -10 30 0 55 5 55 10 0 6 -25 10 -55 10
-30 0 -55 -4 -55 -10z"/>
<path d="M1710 260 c0 -5 25 -10 55 -10 30 0 55 5 55 10 0 6 -25 10 -55 10
-30 0 -55 -4 -55 -10z"/>
<path d="M1850 260 c0 -5 25 -10 55 -10 30 0 55 5 55 10 0 6 -25 10 -55 10
-30 0 -55 -4 -55 -10z"/>
<path d="M1990 260 c0 -5 25 -10 55 -10 30 0 55 5 55 10 0 6 -25 10 -55 10
-30 0 -55 -4 -55 -10z"/>
<path d="M2130 260 c0 -5 25 -10 55 -10 30 0 55 5 55 10 0 6 -25 10 -55 10
-30 0 -55 -4 -55 -10z"/>
<path d="M2270 260 c0 -5 25 -10 55 -10 30 0 55 5 55 10 0 6 -25 10 -55 10
-30 0 -55 -4 -55 -10z"/>
<path d="M2410 260 c0 -5 25 -10 55 -10 30 0 55 5 55 10 0 6 -25 10 -55 10
-30 0 -55 -4 -55 -10z"/>
<path d="M2550 260 c0 -5 25 -10 55 -10 30 0 55 5 55 10 0 6 -25 10 -55 10
-30 0 -55 -4 -55 -10z"/>
<path d="M2690 260 c0 -5 25 -10 55 -10 30 0 55 5 55 10 0 6 -25 10 -55 10
-30 0 -55 -4 -55 -10z"/>
<path d="M2830 260 c0 -5 25 -10 55 -10 30 0 55 5 55 10 0 6 -25 10 -55 10
-30 0 -55 -4 -55 -10z"/>
<path d="M2970 260 c0 -5 25 -10 55 -10 30 0 55 5 55 10 0 6 -25 10 -55 10
-30 0 -55 -4 -55 -10z"/>
<path d="M3110 260 c0 -5 25 -10 55 -10 30 0 55 5 55 10 0 6 -25 10 -55 10
-30 0 -55 -4 -55 -10z"/>
</g>
</svg>
