<?xml version="1.0" encoding="UTF-8"?>
<svg version="1.1" viewBox="0 0 2048 591" width="346" height="100" xmlns="http://www.w3.org/2000/svg">
<path transform="translate(287,57)" d="m0 0 7 1h3l6 1 9-1 8 1 10-1 15 1 6-1h9l9 4 3 3v2l6-2h2l2-2 7 1 26 12 17 9 16 8 13 9 7 6 11 7 12 9 4 1 10-7 5-5 9-8 4-1 3 3 1 3v9l-5 14-8 18 1 7 6 10 8 13 8 17 15 45-2 4v9l6 6 1 8-1 44-2 4h-2l-2 7 1 13-12 36-5 12-6 11-10 17-7 11-12 13-11 12-9 9-8 7-14 12-17 11-23 12-16 8h-6l-1-1-2 2-3-1v3h-2l-1-1-1 4-6 2-1-1h-3l-4-3h-5l-8 6-3 2-4-1-6 1v-2l-9 1-8 1-5-1-10 1-4-1h-9l-7 2-10-5-1-3h-7l-2 2-4-1-10-4-7-2-29-10-11-6-12-10-2-1-3 9-19 38-9 16-3 1-4-5-1-13 1-32 7-23 4-6-1-5-12-11-3-2h-6l-6 9-5 10-4-1-3-2-1-4-1-30 1-9-4-11-8-15-10-22-13-38-1-5v-83l2-9 3-8 2-13 5-12 8-16 12-23 10-15 6-8 9-10 27-27 14-10 17-11 22-11 16-6 17-6 8 1 7-1 2-4z" fill="#040303"/>
<path transform="translate(287,57)" d="m0 0 7 1h3l6 1 9-1 8 1 10-1 15 1 6-1h9l9 4 3 3v2l6-2h2l2-2 7 1 26 12 17 9 16 8 13 9 7 6 5 3 6 8 10 10 5 2 4-1 17-17 6-7 1 3-29 29-10 7-19 12-21 11-30 13-42 16-30 11-27 12-29 15-21 13-16 11-13 10-10 8-10 9-8 7-10 10-7 8-10 12-14 20-12 22-10 23-9 29-3 3h-2l-8-16-14-30-13-38-1-5v-83l2-9 3-8 2-13 5-12 8-16 12-23 10-15 6-8 9-10 27-27 14-10 17-11 22-11 16-6 17-6 8 1 7-1 2-4z" fill="#040303"/>
<path transform="translate(649,230)" d="m0 0h26l8 5 6 7 5 13 4 15 2 14 6 7v5l-3 5 2 9 5 6 1 13-1 3 2 16 4 5 6-1h2l2-9 1-53v-24l5-9 1-4 1-16 1-1 17-1 13-5h37l9 2 6 4 7 8 8 16 2 5v14l-5 13-4 10-9 9-5 3-1 3 13 24 5 11 1 9-6 8-8 7-7 3h-8l-8-7-14-27-4-6-6-3h-3l-1 35-3 7-5 4-6 2h-18l-7-4-2-3-2-18-2-4-4 1 1 9v17l-2 2h-37l-3-2-1-18-3-7-2-1h-16l-6 3-4 5-7 16-4 3-9 1h-12l-10-1-3-2v-17l4-17 12-37 10-29 8-21 6-15 6-10zm132 35-5 3-7 8-5 10-1 7 1 2 7 1 10-4 9-9 3-6v-7l-3-4zm-124 37-2 2v5l2 2 6-1 1-1v-5l-4-2z" fill="#070606"/>
<path transform="translate(522,104)" d="m0 0 4 3 1 3v9l-5 14-8 18 1 8-3-1-1-2v-7h2l2-11 1-2-4 6v4l-3 1-9 11-12 14-10 10-11 9-14 11-16 10-17 10-32 17-52 26-23 13-27 16-13 9-17 12-12 9-17 14-13 12-19 19-7 8-11 14-14 20-10 18-5 12-1 4 2 4-6 9-5 10-4-1-3-2-1-4-1-30 1-11 4-3 10-31 9-21 9-17 10-15 12-16 9-10 11-12 9-9 8-7 16-13 18-13 17-11 19-11 27-14 28-12 44-16 30-12 29-13 17-9 17-11 12-9 26-26-1-1-12 13-11 11-6-1-5-3-7-8-6-7h3l15 11 4 1 10-7 5-5 9-8z" fill="#FAE00C"/>
<path transform="translate(389,271)" d="m0 0h32l16 4 11 6 7 7 6 10 3 7 2 14-1 15-5 21-7 20-8 19-11 23-12 21-9 15-7 11-9 13-4 6-2-1 6-22 9-28 11-35 9-36 2-13v-16l-3-9-6-7-9-3h-14l-16 4-13 5-17 9-21 14-17 13-14 12-13 12-12 11-28 28-7 8-12 13-9 11-10 12-10 14-4 9h-2l-1 7 3-5 2-1-2 6-17 34-9 16-3 1-4-5-1-13 1-32 7-23 4-5 1 1 4-9 11-23 12-21 8-12 12-17 11-14 9-11 15-16 9-9 8-7 14-12 15-11 16-10 27-14 16-6 16-4z" fill="#FADF0C"/>
<path transform="translate(967,230)" d="m0 0h26l9 3 7 9 4 11 3 9 3 2 10 2v-10l-1-12v-12l1-1 17-1h19v50l-1 32-4 4v55l-1 12-1 1h-31l-5-3-4-8-6-19-8-20-7-13-2-2-1 64-2 1h-36l-3-1-1-2v-46l1-15 4-3 1-60 1-13 4-7z" fill="#040303"/>
<path transform="translate(1633,230)" d="m0 0h41l11 4 9 6 7 11 3 10 1 7v12l-4 11-14 27-1 9 11 23 3 9-4 6-7 8-8 5-3 1h-8l-7-6-14-26-5-8-6-3h-3l-1 35-3 7-6 5-11 2-10-1-8-4-5-6-1-6 5-11 1-5 1-42v-31l5-12 1-30 2-1h15zm18 35-6 3-5 8-1 3v13l3 3 7-1 10-9 3-5 1-4v-7l-2-3z" fill="#040303"/>
<path transform="translate(853,230)" d="m0 0h93l1 1v22l-1 12-18 4-24 3-20 2-1 15h9l16-4 6-3 3-4v3l6 1 9 6 3 6 1 9v13l-15 4-25 5-15 1 3 16 13-1 17-4 10-1h17v42l-59 1-4 5h-18l-12-1-5-3-3-4-1-8v-29l1-33 4-9 1-14 1-43 5-8z" fill="#040303"/>
<path transform="translate(765,230)" d="m0 0h37l9 2 6 4 7 8 8 16 2 5v14l-5 13-4 10-9 9-5 3-1 3 13 24 5 11 1 9-6 8-8 7-7 3h-8l-8-7-14-27-4-6-6-3h-3l-1 35-3 7-1 1h-33l-1-1v-35l1-53v-24l5-9 1-4 1-16 1-1 17-1zm16 35-5 3-7 8-5 10-1 7 1 2 7 1 10-4 9-9 3-6v-7l-3-4z" fill="#040303"/>
<path transform="translate(1129,230)" d="m0 0h27l8 7 9 20-1 11 3 5 4 5v7l-2 4v7l3 5 4 4 1 8-2 5v7l4 7 3 3 1 9-2 9 1 9 6 7-1 6-5 5-5 4-9 1-7-1-7 1-8-3-5-5-2-6v-11l1-5-24 1-14 28h-29l-5-2-5-6v-10l4-13 5-20 12-33 5-11 10-25 8-21 7-9zm6 73-3 4-2 9 3 3h5l4-5 1-6-1-4z" fill="#070606"/>
<path transform="translate(1536,226)" d="m0 0 9 1 16 5 12 6 6 7 6 12 2 11v13l3 5 2 1v9l-2 8-2 4-3 25-5 15-7 11-13 13-10 7-12 5-11 1-12-3-10-5-10-9-6-10-3-7-1-5-1-18v-27l1-15 7-23 8-15 11-12 10-6zm2 39-7 7-3 7-1 5v55l2 4 8-1 6-5 1-3v-19l5-2 2-9-1-35-3-4z" fill="#060505"/>
<path transform="translate(1420,230)" d="m0 0h22l11 4 8 5 7 8 4 9 2 13 1 20-1 11-3 6-9 10-10 9-11 6-24 7-6-1-2 1v34l-3 6-6 5-3 1h-19l-8-4-4-8-1-10 2-17v-12l-3-6v-3l4 2 2-5 1-8 1-34v-30l2-5 16-8 9-1 5 1 11-4zm3 36-8 4-6 7-1 3v13l3 9h7l11-6 7-7 2-5v-7l-3-7-6-4z" fill="#050404"/>
<path transform="translate(1315,230)" d="m0 0h21l11 4 10 6 3 4 1 3 1 17-1 19-1 1h-29l-5-3-2-4-1-11h-6l-3 6 1 8 5 5 12 8 12 11 16 16 1 2v31l-3 7-12 13-7 5-15 3-6 4h-8l-14-3-13-4-12-6-6-7-1-5 4-10 9-8 4-2 6 1 11 4 14 2 10-1-4-6-9-10-18-14-10-8-8-10-1-3v-18l4-15 7-13 6-7 14-8z" fill="#050404"/>
<path transform="translate(1878,230)" d="m0 0h19l10 3 8 5 6 9 3 12v17l-3 6-5 2h-20l-7-3-3-5v-9l-1-1-7 1-1 2v9l3 6 7 6 11 7 10 9 8 7 6 8 3 8-1 17-5 13-7 10-7 6-8 4-12 3-4 2h-13l-22-6-14-7-4-6v-10l3-6 8-7 9-1 17 5 11 1 8-1-3-6-9-10-20-15-10-9-6-7-2-5v-21l3-14 5-10 5-6 11-7 15-5z" fill="#090808"/>
<path transform="translate(1716,230)" d="m0 0h106l1 1v34l-1 1h-18l-17-1v70l-5 3v29l-1 16-12 1h-21l-2-3-1-112-18 6-10 3-3-1-3-9-1-8v-17l5-12z" fill="#030202"/>
<path transform="translate(374,87)" d="m0 0h22l12 3 8 4 7 7 6 12v12l-5 14-7 9-10 10-12 8-15 6-10 2h-18l-13-3-10-5-7-8-4-9-1-4v-10l4-12 7-10 11-11 13-8 12-5z" fill="#FBE00C"/>
<path transform="translate(575,411)" d="m0 0 5 1 14 12 4 5 9 1 60 1 1 1v10l-1 1h-68l-11 12-7 7-4 1-10-6-5-4-6-9-2-9 6-11 7-7z" fill="#080707"/>
<path transform="translate(1964,411)" d="m0 0 7 6 8 7 11 11-2 5-22 22-4-1-17-17-3-2-4 2h-11l-8-1-2-3v-8l7-2 14-1 14-7 9-8zm-27 23 1 2z" fill="#0F0E0E"/>
<path transform="translate(1359,430)" d="m0 0h53l1 1 1 11-1 1h-75l-1-3v-9z" fill="#030202"/>
<path transform="translate(1307,430)" d="m0 0h23l1 3v10h-75l-1-1v-11z" fill="#030202"/>
<path transform="translate(1420,431)" d="m0 0h76l1 5v7h-76l-1-3z" fill="#030202"/>
<path transform="translate(1514,430)" d="m0 0 65 1v12h-74l-1-1-1-11z" fill="#060505"/>
<path transform="translate(1133,430)" d="m0 0 32 1v12h-75l-1-1v-11z" fill="#030202"/>
<path transform="translate(1172,431)" d="m0 0h76v12h-75l-1-1z" fill="#030202"/>
<path transform="translate(923,431)" d="m0 0h76l1 11-1 1h-74l-2-3z" fill="#030202"/>
<path transform="translate(1752,431)" d="m0 0h75l1 1v11h-75l-1-2z" fill="#0C0B0B"/>
<path transform="translate(1669,431)" d="m0 0h75l1 1v11h-75l-1-2z" fill="#030202"/>
<path transform="translate(675,431)" d="m0 0h75l1 2v9l-1 1h-74l-1-2z" fill="#131212"/>
<path transform="translate(1835,431)" d="m0 0h75l1 3v8l-1 1h-74l-1-2z" fill="#060505"/>
<path transform="translate(841,431)" d="m0 0h75l1 11-1 1h-74l-1-1z" fill="#0E0D0D"/>
<path transform="translate(1587,431)" d="m0 0h75v12h-75l-1-11z" fill="#030202"/>
<path transform="translate(1007,431)" d="m0 0h75v12h-74l-2-6v-5z" fill="#030202"/>
<path transform="translate(758,431)" d="m0 0h75l1 11-1 1h-74l-1-1z" fill="#030202"/>
<path transform="translate(1371,317)" d="m0 0h1l1 41 2 7 3-11 3-16 2-2-1 23v20l9 2 8-1 4-4 1-4 1-33 3-1 1 3v31l-3 6-6 5-3 1h-19l-8-4-4-8-1-10 2-17v-12l-3-6v-3l4 2z" fill="#FCFCFC"/>
<path transform="translate(1716,230)" d="m0 0h106l1 1v34l-1 1h-9l4-2h2v-31h-26l-76 2-3 37h-2l-2-12v-17l5-12z" fill="#FDFDFD"/>
<path transform="translate(957,317)" d="m0 0h1l-1 38-2 1-1-3-1 25 4 1 17 1h15l5-3v6l-2 1h-36l-3-1-1-2v-46l1-15z" fill="#FDFDFD"/>
<path transform="translate(711,348)" d="m0 0 5 5 6-1h2l3-4v30l32 1-3 3-6 2h-18l-7-4-2-3-2-18-2-4-4 1 1 15-2-2-3-13z" fill="#FDFDFD"/>
<path transform="translate(853,230)" d="m0 0h65v1l-16 1v2l-11 1-40 1-2 18-1-4h-2v-10l5-8z" fill="#FDFDFD"/>
<path transform="translate(1526,285)" d="m0 0h1l1 54 1 3 8-1 5-4 1-3 2 1-2 6-5 4-4 2h-5l-6-7-1-5v-27l2-19z" fill="#FDFDFD"/>
<path transform="translate(1639,331)" d="m0 0 5 2 6 9 14 27 3 5-1 2-6-8-14-27-5-4-6-1-1 35-3 7-2 1 1-40 5-6z" fill="#F9F9F9"/>
<path transform="translate(769,331)" d="m0 0 4 2 6 8 13 26 3 5-1 2-6-9-12-24-5-4-6-1-1 35-3 7-2 1v-17l1-25 6-5z" fill="#FDFDFD"/>
<path transform="translate(843,300)" d="m0 0h2v40l-1 15-2-2-2 15h-1v-29l1-33z" fill="#FDFDFD"/>
<path transform="translate(1140,351)" d="m0 0h9l2 7 1 17 1 4 14 1h22l-4 4-9 1-7-1-7 1-8-3-5-5-2-6v-11l1-5h-13l2-3z" fill="#F0F0F0"/>
<path transform="translate(519,105)" d="m0 0h2l-2 4-11 12-11 11-6-1-5-3-7-8-6-7h3l15 11 4 1 10-7 5-5z" fill="#FCFCF5"/>
<path transform="translate(552,259)" d="m0 0 4 3 1 8-1 44-2 4h-3l1-24v-16l-1-18z" fill="#FDFDFD"/>
<path transform="translate(1063,244)" d="m0 0 2 1v35l-1 32-3 1-1-1v-19l2-39z" fill="#FDFDFD"/>
<path transform="translate(916,278)" d="m0 0 1 3 6 1 9 6 3 6 1 9v13l-5 1 2-4v-11l-1-10h-2l-1-2-21-1-4-2 10-5z" fill="#FDFDFD"/>
<path transform="translate(690,340)" d="m0 0 7 6 3 10 3 12v3h-3l-4-8-6-4-1-5 2-5z" fill="#FDFDFD"/>
<path transform="translate(1017,367)" d="m0 0h2l5 11 2 1h33l-1 5h-31l-5-3-4-8z" fill="#FDFDFD"/>
<path transform="translate(765,230)" d="m0 0h37l9 2 4 3h-8l-8-2-26 1-16 1v-2z" fill="#EBEBEB"/>
<path transform="translate(924,336)" d="m0 0h17v6h-35l-2-1v-2l10-2z" fill="#FDFDFD"/>
<path transform="translate(1169,341)" d="m0 0 3 3 4 12 2 15-3-1-5-9-4-4v-8l2-7z" fill="#FDFDFD"/>
<path transform="translate(732,258)" d="m0 0h1l-1 29-2 14-2 2-1-1v-36z" fill="#FDFDFD"/>
<path transform="translate(1858,236)" d="m0 0 2 1-13 12-6 9-5 16v16l6 15-5-5-3-6v-21l3-14 5-10 5-6z" fill="#FDFDFD"/>
<path transform="translate(1633,230)" d="m0 0h41l9 3v1h-9l-9-1h-11l-20 2h-7v-2z" fill="#FDFDFD"/>
<path transform="translate(1023,265)" d="m0 0 6 1-1 24-4-4-6-13 1-4h3v-3z" fill="#FDFDFD"/>
<path transform="translate(1075,379)" d="m0 0h37l-2 5h-29l-5-2z" fill="#FDFDFD"/>
<path transform="translate(190,98)" d="m0 0v3l-9 8-8 7-10 9-15 16-12 14v-3l6-8 9-10 27-27z" fill="#FDFDFD"/>
<path transform="translate(674,378)" d="m0 0 4 1 16 1h22l-2 4h-37l-3-2z" fill="#FDFDFD"/>
<path transform="translate(1366,359)" d="m0 0 3 4v2h2l8 15 1 4-9-3-4-6-2-13z" fill="#050404"/>
<path transform="translate(598,441)" d="m0 0v3l-9 10-8 8-4 1-10-6-5-4-6-9 1-2 12 12 7 5 5-1 8-8 7-8z" fill="#FDFDFD"/>
<path transform="translate(1524,229)" d="m0 0 3 1-14 9-7 7-9 14-6 12-1-3 5-12 6-10 9-10 9-6z" fill="#FDFDFD"/>
<path transform="translate(659,288)" d="m0 0h2l4 8 3 16v7h-5l-2-4v-5l2-1v-5l-3-8-2-1z" fill="#FDFDFD"/>
<path transform="translate(1601,270)" d="m0 0h2v17l-1 21-2-4-2-7-1-18z" fill="#FDFDFD"/>
<path transform="translate(1486,346)" d="m0 0 5 4 6 14 7 8 9 7-3 1-11-8-7-8-6-13z" fill="#FDFDFD"/>
<path transform="translate(194,489)" d="m0 0 1 2-19 38-3 5-4 1 4-11 2 2 3-9 1-5 3-1 4-8-2-1 3-7 2 3z" fill="#FCFBEE"/>
<path transform="translate(967,230)" d="m0 0h26l9 3 7 9 3 9-3-3-5-9-7-5-10-1h-13l-9 1z" fill="#FDFDFD"/>
<path transform="translate(1746,379)" d="m0 0h35v4l-12 1h-21z" fill="#FDFDFD"/>
<path transform="translate(1647,265)" d="m0 0 4 1-6 3-5 10-1 12-4-3v-13l3-7 2-2z" fill="#FDFDFD"/>
<path transform="translate(597,378)" d="m0 0 10 1h28l-4 4-9 1h-12l-10-1-3-2z" fill="#FDFDFD"/>
<path transform="translate(1633,342)" d="m0 0 2 2-1 27-3 7-2 1 1-29 1-6h2z" fill="#FDFDFD"/>
<path transform="translate(915,267)" d="m0 0h15l-2 2-24 3-20 2-1 6h-1v-6l5-3 19-3z" fill="#FDFDFD"/>
<path transform="translate(1657,264)" d="m0 0 9 3 1 2-1 9-5 10-6 5-6 1 5-5 6-7 2-6v-7l-1-2-5-1z" fill="#FDFDFD"/>
<path transform="translate(1596,379)" d="m0 0h33l-4 4-11 2-10-1-8-4z" fill="#FDFDFD"/>
<path transform="translate(1275,265)" d="m0 0 1 4-1 4v16l2 8 4 7 14 13h-3l-11-9-8-10-1-3v-18z" fill="#FDFDFD"/>
<path transform="translate(1289,343)" d="m0 0 9 2 14 2h6l-2 4-2 2-9-1-13-5z" fill="#F0F0F0"/>
<path transform="translate(879,379)" d="m0 0 2 1-3 4h-18l-12-1-3-1v-2z" fill="#FDFDFD"/>
<path transform="translate(809,317)" d="m0 0 4 5 14 27 2 9-4-5-10-19-7-14z" fill="#FDFDFD"/>
<path transform="translate(1851,343)" d="m0 0 9 2 16 2h3l-2 5-1 1-10-1-12-5z" fill="#F6F6F6"/>
<path transform="translate(1129,230)" d="m0 0h27l8 7 2 6-7-6-3-3-13-2-2-1v2l-4-1-16 4 4-4z" fill="#FDFDFD"/>
<path transform="translate(649,230)" d="m0 0h26l4 3h-16l-15 2-5 5-3 4-2-1 6-9z" fill="#FDFDFD"/>
<path transform="translate(1878,230)" d="m0 0h19l10 3 4 3-10-1-16-2-14 1-2-2z" fill="#FDFDFD"/>
<path transform="translate(963,239)" d="m0 0 1 4-1 17-1 6-1-2h-2v12h-1v-19l1-13z" fill="#FDFDFD"/>
<path transform="translate(1046,230)" d="m0 0h19v5l-4-1h-27l-6 2 1-5z" fill="#FDFDFD"/>
<path transform="translate(791,280)" d="m0 0h1v6l-5 4-3 4-8 2-7 4h-5v-5h7l10-4 8-8z" fill="#FDFDFD"/>
<path transform="translate(1420,230)" d="m0 0h22l9 3-1 2-8-1-7-1-5-1-1 1-9 1-4 1-2-2z" fill="#FDFDFD"/>
<path transform="translate(1315,230)" d="m0 0h21l9 3v1h-32l-3 1-2-3z" fill="#FDFDFD"/>
<path transform="translate(1588,285)" d="m0 0 4 2v9l-2 8-3 5-2-2 2-19z" fill="#FDFDFD"/>
<path transform="translate(1786,301)" d="m0 0h1v34l-3 1v-34z" fill="#FDFDFD"/>
<path transform="translate(831,260)" d="m0 0 2 2 1 3v14l-2 5h-3l-1-6 2-10v-2-5z" fill="#CAC9C9"/>
<path transform="translate(1295,379)" d="m0 0h5l3 2 1-2 9 1v3l7-3 4 1-6 4h-8l-14-3z" fill="#F7F7F7"/>
<path transform="translate(770,266)" d="m0 0h6l-1 4-6 8-4 5-1-4 2-9z" fill="#FDFDFD"/>
<path transform="translate(524,123)" d="m0 0 1 3-11 25 1 8-3-1-1-2v-7h2l2-11 6-10z" fill="#F8F7EE"/>
<path transform="translate(1300,322)" d="m0 0 6 1 8 6 6 7 2 7-5-4-7-8-10-8z" fill="#FDFDFD"/>
<path transform="translate(1515,379)" d="m0 0 8 1 5 1h9l2-1h7l-2 2-12 3-11-1-8-3z" fill="#FDFDFD"/>
<path transform="translate(1595,358)" d="m0 0 2 1-1 20-5-5-1-6z" fill="#FDFDFD"/>
<path transform="translate(1550,307)" d="m0 0 2 3-4 12-3 1v2l6-1 2-2-1 5-1 2-2-1 1-2h-5v2l2 1h-3l-1-10 1-4 4-2z" fill="#FDFDFD"/>
<path transform="translate(1568,236)" d="m0 0 5 2 6 7 6 12 2 11h-2l-6-17-8-11z" fill="#FDFDFD"/>
<path transform="translate(382,63)" d="m0 0 7 1 21 10-4 1-8-4-18-5z" fill="#E6E6E6"/>
<path transform="translate(116,186)" d="m0 0 1 3-8 17-8 22h-1l1-10 5-12 8-16z" fill="#FDFDFD"/>
<path transform="translate(923,431)" d="m0 0 4 1-1 2v8h47v1h-48l-2-3z" fill="#F2F2F2"/>
<path transform="translate(1536,260)" d="m0 0h5l-2 4-8 10-2 5-2-1 1-6 6-10z" fill="#F9F9F9"/>
<path transform="translate(150,445)" d="m0 0h6l4 3 1 3 8 5 2 6-8-6-8-7-5-1z" fill="#D3CFAC"/>
<path transform="translate(705,313)" d="m0 0 4 1 1 2 1 13-1 7-2-3-3-15z" fill="#FDFDFD"/>
<path transform="translate(284,515)" d="m0 0 13 1v2l6-1v2l-10 3-10-5z" fill="#FDFDFD"/>
<path transform="translate(1360,348)" d="m0 0h1l-1 9-9 11-7 7-5 2 5-5 9-10z" fill="#FDFDFD"/>
<path transform="translate(1864,322)" d="m0 0 5 2 6 4 7 8v3l-4-2-6-7-8-6z" fill="#F9F9F9"/>
<path transform="translate(1327,263)" d="m0 0 2 2 2 18-5-2-2-4v-5l2-2v-6z" fill="#FDFDFD"/>
<path transform="translate(1120,355)" d="m0 0 4 1-8 16-2 3v-8l4-10z" fill="#FDFDFD"/>
<path transform="translate(711,348)" d="m0 0 5 5h2v3h-3l1 15-2-2-3-13z" fill="#F9F9F9"/>
<path transform="translate(1684,324)" d="m0 0 2 3 11 23 1 4-3-3-8-14-3-6-2-5z" fill="#FDFDFD"/>
<path transform="translate(1185,331)" d="m0 0 5 4 1 9-1 5-3-2-2-11z" fill="#FDFDFD"/>
<path transform="translate(190,98)" d="m0 0v3l-9 8-8 7-4 3-2-1 11-11z" fill="#E4E4E4"/>
<path transform="translate(1e3 318)" d="m0 0 3 4 3 10 4 8v3h-2l-8-17z" fill="#FDFDFD"/>
<path transform="translate(1316,284)" d="m0 0 5 2 11 7 7 6-2 1-14-9-5-3z" fill="#DFDFDF"/>
<path transform="translate(758,431)" d="m0 0 4 1-2 5 1 4 31 1v1h-33l-1-1z" fill="#ECEBEB"/>
<path transform="translate(788,230)" d="m0 0h14l9 2 4 3h-8l-8-2h-6v-1l-5-1z" fill="#FDFDFD"/>
<path transform="translate(219,81)" d="m0 0 2 1-4 4-10 4-2 3-7 3-4 2 1-3 16-10z" fill="#FDFDFD"/>
<path transform="translate(1255,431)" d="m0 0 4 1-1 2v7l28 1v1h-30l-1-1z" fill="#EFEFEF"/>
<path transform="translate(778,344)" d="m0 0h2l6 11 9 17-1 2-6-9-10-20z" fill="#FDFDFD"/>
<path transform="translate(655,309)" d="m0 0 2 1v10l-5-2-2-2v-5z" fill="#FDFDFD"/>
<path transform="translate(1007,431)" d="m0 0 3 1-1 2v7l33 1v1h-34l-2-6v-5z" fill="#EFEFEF"/>
<path transform="translate(668,351)" d="m0 0 5 1 1 8-2 1-2-4-2-1-11-1 4-3v2z" fill="#FDFDFD"/>
<path transform="translate(1690,308)" d="m0 0 1 2-4 8-6 4h-2l1-5z" fill="#FDFDFD"/>
<path transform="translate(164,483)" d="m0 0 2 1-1 8-3 12-2 2v-10z" fill="#FDFDFD"/>
<path transform="translate(1080,335)" d="m0 0h3l-1 7-4 11-2-4 3-13z" fill="#FDFDFD"/>
<path transform="translate(699,284)" d="m0 0 5 4 2 3v5l-4 5-3-14z" fill="#FDFDFD"/>
<path transform="translate(746,431)" d="m0 0h4l1 2v9l-1 1h-10v-1l7-1z" fill="#FDFDFD"/>
<path transform="translate(1325,430)" d="m0 0h5l1 3v10h-7l3-2-1-7z" fill="#FDFDFD"/>
<path transform="translate(1573,303)" d="m0 0 6 5 1 9-5-1z" fill="#FDFDFD"/>
<path transform="translate(1944,442)" d="m0 0 5 2 14 15h3l2 1-2 2-4-1-18-18z" fill="#FDFDFD"/>
<path transform="translate(94,317)" d="m0 0h1l3 19 2 5-3 1-3-11z" fill="#FDFDFD"/>
<path transform="translate(911,431)" d="m0 0h5l1 11-1 1h-7l4-1z" fill="#FDFDFD"/>
<path transform="translate(769,331)" d="m0 0 4 2 6 8-1 3-5-6-8-3z" fill="#F3F2F2"/>
<path transform="translate(1243,431)" d="m0 0h5v12h-6l2-2z" fill="#FDFDFD"/>
<path transform="translate(662,431)" d="m0 0h5l1 1v10l-1 1h-6l3-2-1-7z" fill="#FDFDFD"/>
<path transform="translate(1407,430)" d="m0 0h5l1 1 1 11-1 1h-6l3-2-2-9z" fill="#FDFDFD"/>
<path transform="translate(1868,380)" d="m0 0h7v3l8-3 4 1-6 3h-13z" fill="#FDFDFD"/>
<path transform="translate(1491,431)" d="m0 0h5l1 5v7h-7l3-1-1-8z" fill="#FDFDFD"/>
<path transform="translate(1160,431)" d="m0 0h5v12h-6l2-2z" fill="#FDFDFD"/>
<path transform="translate(994,431)" d="m0 0h5l1 11-1 1h-7l4-1z" fill="#FDFDFD"/>
<path transform="translate(1180,302)" d="m0 0 4 3 1 8-2 5-2-2z" fill="#FDFDFD"/>
<path transform="translate(1077,431)" d="m0 0h5v12h-6l2-2z" fill="#FDFDFD"/>
<path transform="translate(828,431)" d="m0 0h5l1 11-1 1h-6l3-1z" fill="#FDFDFD"/>
<path transform="translate(1700,254)" d="m0 0h2l2 7v7l-3 1-1-2z" fill="#FDFDFD"/>
<path transform="translate(527,179)" d="m0 0 3 4 7 15 2 5-1 3-5-10-5-12z" fill="#FDFDFD"/>
<path transform="translate(1823,431)" d="m0 0 5 1v11h-6l2-2z" fill="#FDFDFD"/>
<path transform="translate(1740,431)" d="m0 0 5 1v11h-6l2-2z" fill="#FDFDFD"/>
<path transform="translate(1365,362)" d="m0 0 2 2 5 13 3 5-5-2-4-8z" fill="#FDFDFD"/>
<path transform="translate(1438,282)" d="m0 0 2 1-3 9-9 7-1-3 8-7z" fill="#FDFDFD"/>
<path transform="translate(356,515)" d="m0 0h5l-1 3-5 3-4-1-6 1v-2l9-3 2 1z" fill="#FDFDFD"/>
<path transform="translate(1657,431)" d="m0 0h5v12h-6l3-1z" fill="#FDFDFD"/>
<path transform="translate(549,329)" d="m0 0 2 2v7l-4 12-2-2 1-5 2-5z" fill="#F7F7F7"/>
<path transform="translate(1641,294)" d="m0 0 5 1v2l-5 3h-6l-1-2 1-3z" fill="#FDFDFD"/>
<path transform="translate(1349,236)" d="m0 0 5 2 5 4 2 5-1 3-11-13z" fill="#FDFDFD"/>
<path transform="translate(1089,431)" d="m0 0 4 1-1 2v7l15 1v1h-17l-1-1z" fill="#E0E0E0"/>
<path transform="translate(1574,431)" d="m0 0h5v12h-6l3-1z" fill="#FDFDFD"/>
<path transform="translate(572,413)" d="m0 0 2 1-13 13-2 3-2-1 4-6z" fill="#FDFDFD"/>
<path transform="translate(1685,235)" d="m0 0 5 2 5 5 5 7h-3l-12-13z" fill="#FDFDFD"/>
<path transform="translate(546,230)" d="m0 0 3 4 3 9-1 3-3-1v-2h2v-2h-2l-3-7z" fill="#FDFDFD"/>
<path transform="translate(287,57)" d="m0 0 4 3-3 2-8 2v-4l2-2z" fill="#FDFDFD"/>
<path transform="translate(194,489)" d="m0 0 1 2-6 12-3 1-2-2 3-7 2 3z" fill="#EAE8D4"/>
<path transform="translate(1906,431)" d="m0 0h4l1 3v8l-5 1 1-8z" fill="#FDFDFD"/>
<path transform="translate(1276,372)" d="m0 0 8 2 5 2-1 4-12-5z" fill="#FDFDFD"/>
<path transform="translate(833,272)" d="m0 0h1v7l-2 5h-3l-1-6 2-3h2z" fill="#FDFDFD"/>
<path transform="translate(1393,235)" d="m0 0 9 1-1 2-8 1-7 1v-2z" fill="#FDFDFD"/>
<path transform="translate(521,106)" d="m0 0 1 3-16 16v-3l9-9z" fill="#4D4405"/>
<path transform="translate(1337,431)" d="m0 0h5l-2 6v5h5v1h-7l-1-3z" fill="#E3E3E3"/>
<path transform="translate(1488,275)" d="m0 0 2 1-1 7-3 12h-1v-9z" fill="#F6F6F6"/>
<path transform="translate(405,503)" d="m0 0h4v2l-8 4h-6l5-4z" fill="#FDFDFD"/>
<path transform="translate(1086,317)" d="m0 0h2l-1 9-2 4-3-1z" fill="#FDFDFD"/>
<path transform="translate(524,123)" d="m0 0 1 3-5 11-3 2-2 3 1-5z" fill="#FCF7CF"/>
<path transform="translate(446,93)" d="m0 0 5 2 11 8 3 4-4-2-15-11z" fill="#FDFDFD"/>
<path transform="translate(355,58)" d="m0 0 7 1 6 2-1 3-5-1-7-3z" fill="#FDFDFD"/>
<path transform="translate(1916,315)" d="m0 0 5 4 4 10-1 3-8-15z" fill="#FDFDFD"/>
<path transform="translate(1722,273)" d="m0 0h6l-3 3-8 2-3-2 2-2z" fill="#FDFDFD"/>
<path transform="translate(1375,243)" d="m0 0h2l-1 13-4-4 1-7z" fill="#FDFDFD"/>
<path transform="translate(513,419)" d="m0 0v3l-9 11-5 4 2-4z" fill="#FDFDFD"/>
<path transform="translate(1191,365)" d="m0 0 5 4-1 6h-3z" fill="#FDFDFD"/>
<path transform="translate(645,355)" d="m0 0h7l-3 2-7 5-2-4z" fill="#FDFDFD"/>
<path transform="translate(1565,324)" d="m0 0h1l1 12-1 2h-3l1-12z" fill="#FDFDFD"/>
<path transform="translate(1918,431)" d="m0 0 3 1-1 6 3 5-5-1-1-2v-8z" fill="#DFDFDF"/>
<path transform="translate(823,365)" d="m0 0 2 2-7 7-5 3-2-1z" fill="#FDFDFD"/>
<path transform="translate(793,267)" d="m0 0 3 1 1 5-4 7-1-3z" fill="#FDFDFD"/>
<path transform="translate(1172,431)" d="m0 0 4 1-1 2v7l4 2h-6l-1-1z" fill="#DEDEDE"/>
<path transform="translate(1420,431)" d="m0 0h4l-1 9v2l3 1h-5l-1-3z" fill="#DEDEDE"/>
<path transform="translate(1173,272)" d="m0 0 6 6v5l-4-1z" fill="#FDFDFD"/>
<path transform="translate(1455,236)" d="m0 0 5 2 8 9-1 2-12-12z" fill="#FDFDFD"/>
<path transform="translate(588,420)" d="m0 0 4 2 7 9-1 2-10-11z" fill="#FDFDFD"/>
<path transform="translate(1354,315)" d="m0 0 6 5 1 2v6l-4-5-3-6z" fill="#FDFDFD"/>
<path transform="translate(247,69)" d="m0 0 2 1-4 3-4 2h-6v-2z" fill="#FDFDFD"/>
<path transform="translate(1840,373)" d="m0 0 6 1 5 3v2l-10-3-2-2z" fill="#FDFDFD"/>
<path transform="translate(1272,346)" d="m0 0 1 2-7 12-1-4 5-8z" fill="#FDFDFD"/>
<path transform="translate(637,246)" d="m0 0 2 1-2 8-3 3-1-3z" fill="#FDFDFD"/>
<path transform="translate(223,496)" d="m0 0h5l5 6-10-3-2-2z" fill="#FCF9DC"/>
<path transform="translate(1669,431)" d="m0 0 4 1-1 2v7l2 2h-4l-1-2z" fill="#E4E3E3"/>
<path transform="translate(1122,307)" d="m0 0h1v6l-3 8h-3l1-3z" fill="#FDFDFD"/>
<path transform="translate(1093,298)" d="m0 0h1l-1 9-3 5-2-1z" fill="#FDFDFD"/>
<path transform="translate(1137,288)" d="m0 0 3 1 1 6-5 1z" fill="#FDFDFD"/>
<path transform="translate(1752,431)" d="m0 0 4 1-1 1v8l2 2h-4l-1-2z" fill="#DADADA"/>
<path transform="translate(1472,301)" d="m0 0 1 2-7 9-3 2 2-5 5-7z" fill="#FDFDFD"/>
<path transform="translate(213,490)" d="m0 0 5 2 3 3v2l-6-2-3-3z" fill="#FCF2A6"/>
<path transform="translate(150,445)" d="m0 0h6l3 2-1 3-8-2z" fill="#CFBD35"/>
<path transform="translate(1587,431)" d="m0 0h3l-1 3v7l5 1v1h-7l-1-11z" fill="#E2E2E2"/>
<path transform="translate(1635,333)" d="m0 0m-1 1 1 2-2 8h-2l-1-5z" fill="#A3A3A3"/>
<path transform="translate(1133,300)" d="m0 0 3 1-2 4-3 3-2-3 1-3 2 1z" fill="#FDFDFD"/>
<path transform="translate(1503,431)" d="m0 0h4l-1 9v2l4 1h-5l-1-1z" fill="#D7D7D7"/>
<path transform="translate(1536,226)" d="m0 0 9 1-2 2h-10l-1-2z" fill="#FDFDFD"/>
<path transform="translate(1835,431)" d="m0 0h3l-1 6 1 4 2 2h-4l-1-2z" fill="#E9E9E9"/>
<path transform="translate(675,431)" d="m0 0 4 1-2 5 2 6h-3l-1-2z" fill="#E0E0E0"/>
<path transform="translate(642,313)" d="m0 0h1l1 9-5-1 2-7z" fill="#FDFDFD"/>
<path transform="translate(1703,282)" d="m0 0 1 2-3 7-1-4h-2l1-4z" fill="#FDFDFD"/>
<path transform="translate(1546,260)" d="m0 0 4 2v3l-3 1-5-1 2-4z" fill="#FDFDFD"/>
<path transform="translate(1294,239)" d="m0 0m-2 1 2 1-10 10v-3l5-6z" fill="#898989"/>
<path transform="translate(1605,236)" d="m0 0h5l-6 7h-1v-6z" fill="#FDFDFD"/>
</svg>
